<svg xmlns="http://www.w3.org/2000/svg" width="32" height="32" viewBox="0 0 32 32" shape-rendering="geometricPrecision">
  <g transform="translate(0.0000,0.7334) scale(0.054329)">
    <path d="M 286 374 L 287 373 L 305 373 L 306 374 L 308 374 L 309 375 L 310 375 L 311 376 L 313 376 L 314 377 L 315 377 L 316 378 L 317 378 L 319 380 L 320 380 L 330 390 L 330 391 L 332 393 L 332 394 L 334 396 L 334 398 L 335 399 L 335 401 L 336 402 L 336 404 L 337 405 L 337 409 L 338 410 L 338 419 L 337 420 L 337 424 L 336 425 L 336 428 L 335 429 L 335 430 L 334 431 L 334 433 L 333 434 L 333 435 L 331 437 L 331 438 L 329 440 L 329 441 L 320 450 L 319 450 L 318 451 L 317 451 L 315 453 L 314 453 L 313 454 L 312 454 L 311 455 L 309 455 L 308 456 L 304 456 L 303 457 L 289 457 L 288 456 L 283 456 L 282 455 L 281 455 L 280 454 L 279 454 L 278 453 L 277 453 L 276 452 L 275 452 L 274 451 L 273 451 L 271 449 L 270 449 L 262 441 L 262 440 L 260 438 L 260 437 L 259 436 L 259 435 L 257 433 L 257 432 L 256 431 L 256 428 L 255 427 L 255 424 L 254 423 L 254 407 L 255 406 L 255 403 L 256 402 L 256 399 L 257 398 L 257 397 L 258 396 L 258 395 L 260 393 L 260 392 L 262 390 L 262 389 L 268 383 L 269 383 L 273 379 L 274 379 L 275 378 L 276 378 L 277 377 L 278 377 L 279 376 L 280 376 L 281 375 L 283 375 L 284 374 Z M 297 24 L 298 23 L 333 23 L 334 24 L 342 24 L 343 25 L 348 25 L 349 26 L 355 26 L 356 27 L 362 27 L 363 28 L 367 28 L 368 29 L 371 29 L 372 30 L 375 30 L 376 31 L 378 31 L 379 32 L 383 32 L 384 33 L 387 33 L 388 34 L 389 34 L 390 35 L 392 35 L 393 36 L 394 36 L 395 37 L 397 37 L 398 38 L 401 38 L 402 39 L 403 39 L 404 40 L 405 40 L 406 41 L 407 41 L 408 42 L 409 42 L 410 43 L 412 43 L 413 44 L 414 44 L 415 45 L 416 45 L 418 47 L 419 47 L 420 48 L 421 48 L 422 49 L 424 49 L 425 50 L 426 50 L 428 52 L 429 52 L 430 53 L 431 53 L 432 54 L 433 54 L 434 55 L 435 55 L 438 58 L 439 58 L 440 59 L 441 59 L 442 60 L 443 60 L 445 62 L 446 62 L 448 64 L 449 64 L 450 65 L 451 65 L 455 69 L 456 69 L 458 71 L 459 71 L 461 73 L 462 73 L 465 76 L 466 76 L 470 80 L 471 80 L 476 85 L 477 85 L 482 90 L 483 90 L 502 109 L 502 110 L 508 116 L 508 117 L 510 119 L 511 119 L 512 120 L 512 121 L 513 122 L 513 123 L 518 128 L 518 129 L 520 131 L 520 132 L 523 135 L 523 136 L 524 137 L 524 138 L 528 142 L 528 143 L 529 144 L 529 145 L 530 146 L 530 147 L 532 149 L 532 150 L 534 152 L 534 154 L 536 156 L 536 157 L 537 158 L 537 159 L 539 161 L 539 163 L 540 164 L 540 165 L 541 166 L 541 167 L 542 168 L 542 169 L 543 170 L 543 171 L 544 172 L 544 173 L 545 174 L 545 176 L 546 177 L 546 178 L 547 179 L 547 181 L 548 182 L 548 183 L 549 184 L 549 185 L 548 186 L 479 186 L 425 132 L 424 132 L 423 131 L 423 130 L 420 127 L 419 127 L 417 125 L 416 125 L 415 124 L 364 124 L 363 123 L 363 122 L 362 121 L 362 119 L 361 118 L 361 117 L 360 116 L 360 115 L 359 114 L 359 113 L 358 112 L 358 111 L 353 106 L 353 105 L 351 103 L 350 103 L 347 100 L 346 100 L 345 99 L 344 99 L 342 97 L 341 97 L 340 96 L 339 96 L 338 95 L 336 95 L 335 94 L 329 94 L 328 93 L 320 93 L 319 94 L 313 94 L 312 95 L 310 95 L 309 96 L 308 96 L 307 97 L 306 97 L 305 98 L 304 98 L 302 100 L 301 100 L 300 101 L 299 101 L 291 109 L 291 110 L 289 112 L 289 113 L 288 114 L 288 115 L 287 116 L 287 117 L 286 118 L 286 119 L 285 120 L 285 124 L 284 125 L 284 129 L 283 130 L 283 136 L 284 137 L 284 142 L 285 143 L 285 146 L 286 147 L 286 149 L 287 150 L 287 151 L 288 152 L 288 153 L 289 154 L 289 155 L 291 157 L 291 158 L 300 167 L 301 167 L 302 168 L 303 168 L 305 170 L 306 170 L 307 171 L 308 171 L 309 172 L 311 172 L 312 173 L 316 173 L 317 174 L 332 174 L 333 173 L 337 173 L 338 172 L 339 172 L 340 171 L 341 171 L 342 170 L 343 170 L 344 169 L 345 169 L 347 167 L 348 167 L 357 158 L 357 157 L 359 155 L 359 153 L 361 151 L 361 150 L 362 149 L 362 147 L 363 146 L 363 145 L 364 144 L 407 144 L 467 204 L 468 204 L 470 206 L 474 206 L 475 207 L 556 207 L 557 208 L 557 209 L 558 210 L 558 212 L 559 213 L 559 215 L 560 216 L 560 219 L 561 220 L 561 225 L 562 226 L 562 230 L 563 231 L 563 235 L 564 236 L 564 240 L 565 241 L 565 247 L 564 248 L 461 248 L 459 246 L 459 245 L 458 244 L 458 243 L 457 242 L 457 241 L 456 240 L 456 239 L 455 238 L 455 237 L 450 232 L 450 231 L 449 231 L 447 229 L 446 229 L 443 226 L 442 226 L 441 225 L 440 225 L 439 224 L 436 224 L 435 223 L 433 223 L 432 222 L 419 222 L 418 223 L 416 223 L 415 224 L 412 224 L 411 225 L 410 225 L 408 227 L 407 227 L 405 229 L 404 229 L 397 236 L 397 237 L 395 239 L 395 240 L 394 241 L 394 242 L 393 243 L 393 246 L 392 247 L 392 249 L 391 250 L 391 265 L 392 266 L 392 268 L 393 269 L 393 271 L 394 272 L 394 274 L 396 276 L 396 277 L 399 280 L 399 281 L 402 284 L 403 284 L 406 287 L 407 287 L 408 288 L 409 288 L 411 290 L 412 290 L 413 291 L 415 291 L 416 292 L 421 292 L 422 293 L 429 293 L 430 292 L 436 292 L 437 291 L 439 291 L 441 289 L 442 289 L 443 288 L 444 288 L 446 286 L 447 286 L 455 278 L 455 277 L 456 276 L 456 275 L 457 274 L 457 273 L 458 272 L 458 271 L 459 270 L 459 269 L 460 268 L 566 268 L 567 269 L 567 303 L 566 304 L 566 309 L 565 310 L 495 310 L 455 350 L 455 351 L 454 352 L 454 353 L 453 354 L 453 360 L 454 361 L 454 362 L 458 366 L 459 366 L 460 367 L 466 367 L 467 366 L 468 366 L 504 330 L 561 330 L 562 331 L 562 335 L 561 336 L 561 342 L 560 343 L 560 346 L 559 347 L 559 349 L 558 350 L 558 353 L 557 354 L 557 356 L 556 357 L 556 359 L 555 360 L 555 363 L 554 364 L 554 366 L 553 367 L 553 369 L 552 370 L 552 371 L 551 372 L 551 374 L 550 375 L 550 377 L 549 378 L 549 380 L 548 381 L 548 382 L 547 383 L 547 384 L 546 385 L 546 386 L 545 387 L 545 389 L 544 390 L 544 391 L 543 392 L 543 393 L 542 394 L 542 395 L 541 396 L 541 397 L 540 398 L 540 399 L 539 400 L 539 402 L 537 404 L 537 405 L 536 406 L 536 407 L 534 409 L 534 411 L 532 413 L 532 414 L 530 416 L 530 417 L 529 418 L 529 419 L 528 420 L 528 421 L 525 424 L 525 425 L 523 427 L 523 428 L 521 430 L 521 431 L 519 433 L 519 434 L 517 436 L 517 437 L 513 441 L 513 442 L 508 447 L 508 448 L 503 453 L 503 454 L 479 478 L 478 478 L 473 483 L 472 483 L 467 488 L 466 488 L 464 490 L 463 490 L 460 493 L 459 493 L 457 495 L 456 495 L 453 498 L 452 498 L 451 499 L 450 499 L 448 501 L 447 501 L 445 503 L 444 503 L 442 505 L 441 505 L 440 506 L 439 506 L 438 507 L 437 507 L 435 509 L 434 509 L 433 510 L 432 510 L 431 511 L 430 511 L 429 512 L 428 512 L 427 513 L 426 513 L 424 515 L 422 515 L 421 516 L 420 516 L 419 517 L 418 517 L 417 518 L 416 518 L 415 519 L 414 519 L 413 520 L 412 520 L 411 521 L 408 521 L 407 522 L 406 522 L 405 523 L 404 523 L 403 524 L 401 524 L 400 525 L 399 525 L 398 526 L 395 526 L 394 527 L 392 527 L 391 528 L 389 528 L 388 529 L 386 529 L 385 530 L 383 530 L 382 531 L 380 531 L 379 532 L 375 532 L 374 533 L 371 533 L 370 534 L 367 534 L 366 535 L 363 535 L 362 536 L 359 536 L 358 537 L 351 537 L 350 538 L 342 538 L 341 539 L 334 539 L 333 540 L 330 540 L 329 539 L 331 537 L 333 537 L 334 536 L 335 536 L 336 535 L 339 535 L 340 534 L 342 534 L 343 533 L 344 533 L 345 532 L 346 532 L 347 531 L 348 531 L 349 530 L 350 530 L 351 529 L 353 529 L 355 527 L 356 527 L 357 526 L 358 526 L 360 524 L 362 524 L 364 522 L 365 522 L 367 520 L 368 520 L 370 518 L 371 518 L 373 516 L 374 516 L 377 513 L 378 513 L 384 507 L 385 507 L 386 506 L 386 505 L 387 504 L 388 504 L 391 501 L 391 500 L 397 494 L 397 493 L 401 489 L 401 488 L 402 487 L 402 486 L 404 484 L 404 483 L 406 481 L 406 480 L 407 479 L 407 478 L 408 477 L 408 476 L 410 474 L 410 473 L 411 472 L 411 471 L 412 470 L 412 469 L 413 468 L 413 466 L 414 465 L 414 464 L 415 463 L 415 461 L 416 460 L 416 459 L 417 458 L 417 456 L 418 455 L 418 451 L 419 450 L 419 448 L 420 447 L 420 444 L 421 443 L 421 439 L 422 438 L 422 433 L 423 432 L 423 401 L 422 400 L 422 394 L 421 393 L 421 388 L 420 387 L 420 384 L 419 383 L 419 380 L 418 379 L 418 375 L 417 374 L 417 372 L 416 371 L 416 369 L 415 368 L 415 367 L 414 366 L 414 365 L 413 364 L 413 362 L 412 361 L 412 359 L 411 358 L 411 357 L 409 355 L 409 354 L 407 352 L 407 350 L 406 349 L 406 348 L 404 346 L 404 345 L 402 343 L 402 342 L 401 341 L 401 340 L 397 336 L 397 335 L 395 333 L 395 332 L 394 332 L 393 331 L 393 330 L 379 316 L 378 316 L 373 311 L 372 311 L 369 308 L 368 308 L 366 306 L 365 306 L 364 305 L 363 305 L 361 303 L 360 303 L 358 301 L 357 301 L 356 300 L 355 300 L 354 299 L 353 299 L 352 298 L 351 298 L 350 297 L 349 297 L 347 295 L 346 295 L 345 294 L 343 294 L 342 293 L 341 293 L 340 292 L 338 292 L 337 291 L 336 291 L 335 290 L 334 290 L 333 289 L 330 289 L 329 288 L 327 288 L 326 287 L 324 287 L 323 286 L 321 286 L 320 285 L 318 285 L 317 284 L 314 284 L 313 283 L 309 283 L 308 282 L 305 282 L 304 281 L 302 281 L 301 280 L 298 280 L 297 279 L 293 279 L 292 278 L 287 278 L 286 277 L 283 277 L 282 276 L 280 276 L 279 275 L 277 275 L 276 274 L 273 274 L 272 273 L 270 273 L 269 272 L 266 272 L 265 271 L 264 271 L 263 270 L 262 270 L 261 269 L 259 269 L 258 268 L 257 268 L 256 267 L 254 267 L 253 266 L 252 266 L 251 265 L 250 265 L 249 264 L 248 264 L 247 263 L 246 263 L 245 262 L 244 262 L 243 261 L 242 261 L 240 259 L 239 259 L 237 257 L 236 257 L 235 256 L 234 256 L 232 254 L 231 254 L 229 252 L 228 252 L 226 250 L 225 250 L 221 246 L 220 246 L 206 232 L 206 231 L 202 227 L 202 226 L 199 223 L 199 222 L 197 220 L 197 219 L 196 218 L 196 217 L 194 215 L 194 214 L 192 212 L 192 211 L 191 210 L 191 208 L 190 207 L 190 206 L 189 205 L 189 204 L 188 203 L 188 202 L 187 201 L 187 199 L 186 198 L 186 195 L 185 194 L 185 192 L 184 191 L 184 189 L 183 188 L 183 185 L 182 184 L 182 181 L 181 180 L 181 172 L 180 171 L 180 141 L 181 140 L 181 131 L 182 130 L 182 126 L 183 125 L 183 123 L 184 122 L 184 119 L 185 118 L 185 115 L 186 114 L 186 111 L 187 110 L 187 108 L 188 107 L 188 106 L 189 105 L 189 103 L 190 102 L 190 101 L 191 100 L 191 98 L 192 97 L 192 96 L 193 95 L 193 94 L 194 93 L 194 92 L 195 91 L 195 90 L 196 89 L 196 88 L 197 87 L 197 86 L 199 84 L 199 83 L 201 81 L 201 80 L 202 79 L 202 78 L 206 74 L 206 73 L 210 69 L 210 68 L 224 54 L 225 54 L 228 51 L 229 51 L 232 48 L 233 48 L 235 46 L 236 46 L 238 44 L 239 44 L 240 43 L 241 43 L 242 42 L 243 42 L 245 40 L 246 40 L 247 39 L 248 39 L 249 38 L 250 38 L 251 37 L 253 37 L 255 35 L 256 35 L 257 34 L 258 34 L 259 33 L 261 33 L 262 32 L 264 32 L 265 31 L 267 31 L 268 30 L 270 30 L 271 29 L 272 29 L 273 28 L 276 28 L 277 27 L 281 27 L 282 26 L 285 26 L 286 25 L 290 25 L 291 24 Z M 271 0 L 269 2 L 260 2 L 259 3 L 253 3 L 252 4 L 248 4 L 247 5 L 243 5 L 242 6 L 239 6 L 238 7 L 235 7 L 234 8 L 229 8 L 228 9 L 225 9 L 224 10 L 222 10 L 221 11 L 218 11 L 217 12 L 215 12 L 214 13 L 211 13 L 210 14 L 208 14 L 207 15 L 205 15 L 204 16 L 202 16 L 201 17 L 200 17 L 199 18 L 197 18 L 196 19 L 194 19 L 193 20 L 192 20 L 191 21 L 189 21 L 188 22 L 187 22 L 186 23 L 185 23 L 184 24 L 182 24 L 181 25 L 180 25 L 179 26 L 178 26 L 177 27 L 176 27 L 175 28 L 174 28 L 173 29 L 172 29 L 171 30 L 170 30 L 169 31 L 168 31 L 167 32 L 166 32 L 164 34 L 163 34 L 162 35 L 161 35 L 160 36 L 159 36 L 158 37 L 157 37 L 155 39 L 154 39 L 153 40 L 152 40 L 151 41 L 150 41 L 148 43 L 147 43 L 145 45 L 144 45 L 142 47 L 141 47 L 138 50 L 137 50 L 136 51 L 135 51 L 132 54 L 131 54 L 128 57 L 127 57 L 122 62 L 121 62 L 116 67 L 115 67 L 109 73 L 108 73 L 91 90 L 91 91 L 85 97 L 85 98 L 80 103 L 80 104 L 75 109 L 75 110 L 72 113 L 72 114 L 70 116 L 70 117 L 68 119 L 68 120 L 65 123 L 65 124 L 64 125 L 64 126 L 62 128 L 62 129 L 60 131 L 60 132 L 59 133 L 59 134 L 57 136 L 57 137 L 55 139 L 55 140 L 54 141 L 54 142 L 53 143 L 53 144 L 52 145 L 52 146 L 51 147 L 51 148 L 49 150 L 49 151 L 48 152 L 48 154 L 47 155 L 47 156 L 46 157 L 46 158 L 45 159 L 45 160 L 44 161 L 44 162 L 43 163 L 43 165 L 42 166 L 42 168 L 41 169 L 41 170 L 40 171 L 40 172 L 39 173 L 39 175 L 38 176 L 38 178 L 37 179 L 37 182 L 36 183 L 36 185 L 35 186 L 35 188 L 34 189 L 34 191 L 33 192 L 33 195 L 32 196 L 32 202 L 31 203 L 31 213 L 32 214 L 32 220 L 33 221 L 33 223 L 34 224 L 34 227 L 35 228 L 35 231 L 36 232 L 36 236 L 37 237 L 37 247 L 36 248 L 36 250 L 35 251 L 35 253 L 34 254 L 34 255 L 33 256 L 33 257 L 32 258 L 32 260 L 31 261 L 31 262 L 30 263 L 30 264 L 28 266 L 28 267 L 27 268 L 27 269 L 26 270 L 26 271 L 25 272 L 25 273 L 23 275 L 23 276 L 22 277 L 22 278 L 21 279 L 21 280 L 20 281 L 20 282 L 17 285 L 17 286 L 16 287 L 16 288 L 15 289 L 15 290 L 14 291 L 14 292 L 12 294 L 12 295 L 11 296 L 11 297 L 10 298 L 10 299 L 9 300 L 9 301 L 8 302 L 8 303 L 6 305 L 6 306 L 5 307 L 5 309 L 4 310 L 4 311 L 3 312 L 3 313 L 2 314 L 2 316 L 0 318 L 0 330 L 6 336 L 7 336 L 9 338 L 10 338 L 11 339 L 13 339 L 14 340 L 18 340 L 19 341 L 24 341 L 25 342 L 28 342 L 29 343 L 30 343 L 35 348 L 35 349 L 36 350 L 36 355 L 35 356 L 35 360 L 34 361 L 34 365 L 33 366 L 33 370 L 32 371 L 32 382 L 33 383 L 33 384 L 34 385 L 34 386 L 39 391 L 40 391 L 42 393 L 43 393 L 44 394 L 45 394 L 46 395 L 46 396 L 45 397 L 45 398 L 44 399 L 44 400 L 43 401 L 43 409 L 44 410 L 44 411 L 45 412 L 45 413 L 47 415 L 47 416 L 50 419 L 50 420 L 51 421 L 52 421 L 53 422 L 53 423 L 54 424 L 54 425 L 56 427 L 56 428 L 57 429 L 57 432 L 58 433 L 58 435 L 57 436 L 57 441 L 56 442 L 56 446 L 55 447 L 55 462 L 56 463 L 56 465 L 57 466 L 57 467 L 58 468 L 58 469 L 59 470 L 59 471 L 60 472 L 60 473 L 67 480 L 68 480 L 69 481 L 70 481 L 72 483 L 73 483 L 74 484 L 75 484 L 76 485 L 77 485 L 78 486 L 82 486 L 83 487 L 87 487 L 88 488 L 114 488 L 115 487 L 124 487 L 125 486 L 128 486 L 129 487 L 131 487 L 132 488 L 133 488 L 134 489 L 135 489 L 137 491 L 138 491 L 142 495 L 143 495 L 148 500 L 149 500 L 153 504 L 154 504 L 158 508 L 159 508 L 163 512 L 164 512 L 167 515 L 168 515 L 171 518 L 172 518 L 174 520 L 175 520 L 178 523 L 179 523 L 180 524 L 181 524 L 183 526 L 184 526 L 186 528 L 187 528 L 188 529 L 189 529 L 190 530 L 191 530 L 193 532 L 194 532 L 195 533 L 196 533 L 197 534 L 198 534 L 199 535 L 200 535 L 201 536 L 202 536 L 203 537 L 204 537 L 205 538 L 206 538 L 207 539 L 208 539 L 209 540 L 211 540 L 212 541 L 213 541 L 214 542 L 215 542 L 216 543 L 217 543 L 218 544 L 220 544 L 221 545 L 223 545 L 224 546 L 226 546 L 227 547 L 229 547 L 230 548 L 231 548 L 232 549 L 234 549 L 235 550 L 238 550 L 239 551 L 242 551 L 243 552 L 246 552 L 247 553 L 249 553 L 250 554 L 253 554 L 254 555 L 258 555 L 259 556 L 264 556 L 265 557 L 271 557 L 272 558 L 277 558 L 278 559 L 284 559 L 286 561 L 339 561 L 341 559 L 347 559 L 348 558 L 353 558 L 354 557 L 359 557 L 360 556 L 366 556 L 367 555 L 370 555 L 371 554 L 374 554 L 375 553 L 378 553 L 379 552 L 381 552 L 382 551 L 386 551 L 387 550 L 389 550 L 390 549 L 392 549 L 393 548 L 395 548 L 396 547 L 398 547 L 399 546 L 401 546 L 402 545 L 405 545 L 406 544 L 407 544 L 408 543 L 409 543 L 410 542 L 412 542 L 413 541 L 414 541 L 415 540 L 417 540 L 418 539 L 420 539 L 421 538 L 422 538 L 423 537 L 424 537 L 425 536 L 426 536 L 427 535 L 428 535 L 429 534 L 431 534 L 432 533 L 433 533 L 435 531 L 436 531 L 437 530 L 438 530 L 439 529 L 440 529 L 441 528 L 442 528 L 443 527 L 444 527 L 446 525 L 447 525 L 448 524 L 449 524 L 450 523 L 451 523 L 452 522 L 453 522 L 456 519 L 457 519 L 458 518 L 459 518 L 461 516 L 462 516 L 464 514 L 465 514 L 467 512 L 468 512 L 470 510 L 471 510 L 474 507 L 475 507 L 479 503 L 480 503 L 484 499 L 485 499 L 489 495 L 490 495 L 496 489 L 497 489 L 516 470 L 516 469 L 522 463 L 522 462 L 527 457 L 527 456 L 531 452 L 531 451 L 535 447 L 535 446 L 537 444 L 537 443 L 539 441 L 539 440 L 542 437 L 542 436 L 543 435 L 543 434 L 545 432 L 545 431 L 547 429 L 547 428 L 548 427 L 548 426 L 549 425 L 549 424 L 551 422 L 551 421 L 553 419 L 553 417 L 555 415 L 555 414 L 556 413 L 556 412 L 557 411 L 557 410 L 558 409 L 558 408 L 559 407 L 559 406 L 560 405 L 560 404 L 561 403 L 561 402 L 562 401 L 562 400 L 563 399 L 563 398 L 564 397 L 564 395 L 565 394 L 565 393 L 566 392 L 566 391 L 567 390 L 567 389 L 568 388 L 568 386 L 569 385 L 569 383 L 570 382 L 570 380 L 571 379 L 571 378 L 572 377 L 572 376 L 573 375 L 573 373 L 574 372 L 574 370 L 575 369 L 575 366 L 576 365 L 576 363 L 577 362 L 577 360 L 578 359 L 578 356 L 579 355 L 579 353 L 580 352 L 580 347 L 581 346 L 581 343 L 582 342 L 582 339 L 583 338 L 583 334 L 584 333 L 584 329 L 585 328 L 585 323 L 586 322 L 586 313 L 588 311 L 588 250 L 586 248 L 586 239 L 585 238 L 585 233 L 584 232 L 584 228 L 583 227 L 583 223 L 582 222 L 582 219 L 581 218 L 581 215 L 580 214 L 580 210 L 579 209 L 579 206 L 578 205 L 578 203 L 577 202 L 577 200 L 576 199 L 576 197 L 575 196 L 575 193 L 574 192 L 574 189 L 573 188 L 573 187 L 572 186 L 572 184 L 571 183 L 571 182 L 570 181 L 570 179 L 569 178 L 569 176 L 568 175 L 568 173 L 567 172 L 567 171 L 566 170 L 566 169 L 565 168 L 565 167 L 564 166 L 564 164 L 563 163 L 563 162 L 562 161 L 562 160 L 561 159 L 561 158 L 559 156 L 559 154 L 558 153 L 558 152 L 557 151 L 557 150 L 555 148 L 555 147 L 554 146 L 554 145 L 553 144 L 553 143 L 552 142 L 552 141 L 550 139 L 550 138 L 548 136 L 548 135 L 547 134 L 547 133 L 545 131 L 545 130 L 543 128 L 543 127 L 541 125 L 541 124 L 538 121 L 538 120 L 537 119 L 537 118 L 533 114 L 533 113 L 531 111 L 531 110 L 528 107 L 528 106 L 525 103 L 525 102 L 520 97 L 520 96 L 510 86 L 510 85 L 509 84 L 508 84 L 504 80 L 504 79 L 503 79 L 496 72 L 495 72 L 494 71 L 494 70 L 493 69 L 492 69 L 486 63 L 485 63 L 482 60 L 481 60 L 478 57 L 477 57 L 475 55 L 474 55 L 471 52 L 470 52 L 469 51 L 468 51 L 465 48 L 464 48 L 462 46 L 461 46 L 460 45 L 459 45 L 458 44 L 457 44 L 455 42 L 454 42 L 452 40 L 450 40 L 448 38 L 447 38 L 446 37 L 445 37 L 444 36 L 443 36 L 442 35 L 441 35 L 440 34 L 439 34 L 438 33 L 437 33 L 436 32 L 435 32 L 433 30 L 431 30 L 430 29 L 429 29 L 428 28 L 427 28 L 426 27 L 425 27 L 424 26 L 423 26 L 422 25 L 421 25 L 420 24 L 418 24 L 417 23 L 416 23 L 415 22 L 414 22 L 413 21 L 412 21 L 411 20 L 409 20 L 408 19 L 406 19 L 405 18 L 403 18 L 402 17 L 401 17 L 400 16 L 398 16 L 397 15 L 396 15 L 395 14 L 392 14 L 391 13 L 388 13 L 387 12 L 385 12 L 384 11 L 382 11 L 381 10 L 379 10 L 378 9 L 375 9 L 374 8 L 370 8 L 369 7 L 365 7 L 364 6 L 361 6 L 360 5 L 357 5 L 356 4 L 352 4 L 351 3 L 345 3 L 344 2 L 335 2 L 333 0 Z" fill="#000000" fill-rule="evenodd" />
  </g>
</svg>
